<mxfile host="app.diagrams.net" modified="2021-11-26T08:52:55.200Z" agent="5.0 (Windows NT 10.0; Win64; x64) AppleWebKit/537.36 (KHTML, like Gecko) Chrome/96.0.4664.45 Safari/537.36" etag="qBqr5NSVno2uLKs4Cj-c" version="15.7.3" type="github">
  <diagram id="ZB2PkOVlPT2-zo93CzSN" name="Page-1">
    <mxGraphModel dx="792" dy="1586" grid="1" gridSize="10" guides="1" tooltips="1" connect="1" arrows="1" fold="1" page="1" pageScale="1" pageWidth="850" pageHeight="1100" math="0" shadow="0">
      <root>
        <mxCell id="0" />
        <mxCell id="1" parent="0" />
        <mxCell id="KcIeR8g20Xgpo551yg-J-1" value="Surgeon" style="rounded=0;whiteSpace=wrap;html=1;" vertex="1" parent="1">
          <mxGeometry x="630" y="100" width="120" height="40" as="geometry" />
        </mxCell>
        <mxCell id="KcIeR8g20Xgpo551yg-J-2" value="Physician" style="rounded=0;whiteSpace=wrap;html=1;" vertex="1" parent="1">
          <mxGeometry x="60" y="120" width="120" height="40" as="geometry" />
        </mxCell>
        <mxCell id="KcIeR8g20Xgpo551yg-J-3" value="Nurse" style="rounded=0;whiteSpace=wrap;html=1;" vertex="1" parent="1">
          <mxGeometry x="460" y="340" width="120" height="40" as="geometry" />
        </mxCell>
        <mxCell id="KcIeR8g20Xgpo551yg-J-4" value="medication" style="rounded=0;whiteSpace=wrap;html=1;" vertex="1" parent="1">
          <mxGeometry x="70" y="320" width="110" height="40" as="geometry" />
        </mxCell>
        <mxCell id="KcIeR8g20Xgpo551yg-J-5" value="Patient" style="rounded=0;whiteSpace=wrap;html=1;" vertex="1" parent="1">
          <mxGeometry x="290" y="230" width="120" height="40" as="geometry" />
        </mxCell>
        <mxCell id="KcIeR8g20Xgpo551yg-J-6" value="Location" style="rounded=0;whiteSpace=wrap;html=1;" vertex="1" parent="1">
          <mxGeometry x="650" y="230" width="110" height="40" as="geometry" />
        </mxCell>
        <mxCell id="KcIeR8g20Xgpo551yg-J-7" value="Surgery" style="rounded=0;whiteSpace=wrap;html=1;" vertex="1" parent="1">
          <mxGeometry x="380" y="90" width="110" height="40" as="geometry" />
        </mxCell>
        <mxCell id="KcIeR8g20Xgpo551yg-J-8" value="&lt;u&gt;Physician Emp No&lt;/u&gt;" style="ellipse;whiteSpace=wrap;html=1;" vertex="1" parent="1">
          <mxGeometry x="200" y="80" width="110" height="60" as="geometry" />
        </mxCell>
        <mxCell id="KcIeR8g20Xgpo551yg-J-9" value="Name" style="ellipse;whiteSpace=wrap;html=1;" vertex="1" parent="1">
          <mxGeometry x="85" y="40" width="65" height="40" as="geometry" />
        </mxCell>
        <mxCell id="KcIeR8g20Xgpo551yg-J-10" value="Gender" style="ellipse;whiteSpace=wrap;html=1;" vertex="1" parent="1">
          <mxGeometry x="15" y="60" width="70" height="40" as="geometry" />
        </mxCell>
        <mxCell id="KcIeR8g20Xgpo551yg-J-11" value="Monthly Salary" style="ellipse;whiteSpace=wrap;html=1;" vertex="1" parent="1">
          <mxGeometry x="180" y="40" width="70" height="40" as="geometry" />
        </mxCell>
        <mxCell id="KcIeR8g20Xgpo551yg-J-12" value="Speciality" style="ellipse;whiteSpace=wrap;html=1;" vertex="1" parent="1">
          <mxGeometry x="215" y="-10" width="65" height="40" as="geometry" />
        </mxCell>
        <mxCell id="KcIeR8g20Xgpo551yg-J-13" value="Address" style="ellipse;whiteSpace=wrap;html=1;" vertex="1" parent="1">
          <mxGeometry x="120" y="-10" width="80" height="40" as="geometry" />
        </mxCell>
        <mxCell id="KcIeR8g20Xgpo551yg-J-14" value="Tel No" style="ellipse;shape=doubleEllipse;whiteSpace=wrap;html=1;" vertex="1" parent="1">
          <mxGeometry x="30" y="-10" width="70" height="50" as="geometry" />
        </mxCell>
        <mxCell id="KcIeR8g20Xgpo551yg-J-15" value="Name" style="ellipse;whiteSpace=wrap;html=1;" vertex="1" parent="1">
          <mxGeometry x="570" y="400" width="60" height="40" as="geometry" />
        </mxCell>
        <mxCell id="KcIeR8g20Xgpo551yg-J-16" value="Name" style="ellipse;whiteSpace=wrap;html=1;" vertex="1" parent="1">
          <mxGeometry x="680" y="55" width="70" height="40" as="geometry" />
        </mxCell>
        <mxCell id="KcIeR8g20Xgpo551yg-J-17" value="Gender" style="ellipse;whiteSpace=wrap;html=1;" vertex="1" parent="1">
          <mxGeometry x="600" y="40" width="70" height="45" as="geometry" />
        </mxCell>
        <mxCell id="KcIeR8g20Xgpo551yg-J-18" value="Gender" style="ellipse;whiteSpace=wrap;html=1;" vertex="1" parent="1">
          <mxGeometry x="485" y="410" width="70" height="40" as="geometry" />
        </mxCell>
        <mxCell id="KcIeR8g20Xgpo551yg-J-19" value="&lt;u&gt;Surgeon Emp No&lt;/u&gt;" style="ellipse;whiteSpace=wrap;html=1;" vertex="1" parent="1">
          <mxGeometry x="610" y="-30" width="110" height="50" as="geometry" />
        </mxCell>
        <mxCell id="KcIeR8g20Xgpo551yg-J-20" value="&lt;u&gt;Nurse Emp No&lt;/u&gt;" style="ellipse;whiteSpace=wrap;html=1;" vertex="1" parent="1">
          <mxGeometry x="375" y="400" width="100" height="50" as="geometry" />
        </mxCell>
      </root>
    </mxGraphModel>
  </diagram>
</mxfile>
